<mxfile host="app.diagrams.net" modified="2023-08-27T14:55:48.914Z" agent="Mozilla/5.0 (Windows NT 10.0; WOW64) AppleWebKit/537.36 (KHTML, like Gecko) Chrome/108.0.5359.125 Safari/537.36" etag="iiK7e8v9ifazKfYUplmp" version="21.6.9" type="github">
  <diagram name="第 1 页" id="5EeTXoFenc_YiNX9l1NI">
    <mxGraphModel dx="1185" dy="642" grid="1" gridSize="10" guides="1" tooltips="1" connect="1" arrows="1" fold="1" page="1" pageScale="1" pageWidth="827" pageHeight="1169" math="0" shadow="0">
      <root>
        <mxCell id="0" />
        <mxCell id="1" parent="0" />
        <mxCell id="MFsD-34qDo7G34yyTd13-1" value="Listen the&amp;nbsp;WebServerInitializedEvent" style="rounded=0;whiteSpace=wrap;html=1;" parent="1" vertex="1">
          <mxGeometry x="220" y="50" width="250" height="20" as="geometry" />
        </mxCell>
        <mxCell id="MFsD-34qDo7G34yyTd13-4" value="Scan all classes in within the base packages" style="rounded=0;whiteSpace=wrap;html=1;" parent="1" vertex="1">
          <mxGeometry x="220" y="90" width="250" height="20" as="geometry" />
        </mxCell>
        <mxCell id="MFsD-34qDo7G34yyTd13-5" value="Get all classes with the specified annotation" style="rounded=0;whiteSpace=wrap;html=1;" parent="1" vertex="1">
          <mxGeometry x="220" y="130" width="250" height="20" as="geometry" />
        </mxCell>
        <mxCell id="W75cND2qvZO_ZwM8Ezsm-1" value="Create an invocation based on the specified method &amp;amp; instance in the spring IoC" style="rounded=0;whiteSpace=wrap;html=1;" parent="1" vertex="1">
          <mxGeometry x="40" y="280" width="250" height="30" as="geometry" />
        </mxCell>
        <mxCell id="W75cND2qvZO_ZwM8Ezsm-2" value="Instance loaded in the spring IoC?" style="rhombus;whiteSpace=wrap;html=1;" parent="1" vertex="1">
          <mxGeometry x="220" y="170" width="250" height="80" as="geometry" />
        </mxCell>
        <mxCell id="W75cND2qvZO_ZwM8Ezsm-3" value="Create an instance of the specified class" style="rounded=0;whiteSpace=wrap;html=1;" parent="1" vertex="1">
          <mxGeometry x="380" y="280" width="250" height="20" as="geometry" />
        </mxCell>
        <mxCell id="W75cND2qvZO_ZwM8Ezsm-4" value="Create an invocation based on created instance" style="rounded=0;whiteSpace=wrap;html=1;" parent="1" vertex="1">
          <mxGeometry x="380" y="320" width="250" height="30" as="geometry" />
        </mxCell>
        <mxCell id="W75cND2qvZO_ZwM8Ezsm-5" value="Generate job info based on class &amp;amp; method" style="rounded=0;whiteSpace=wrap;html=1;" parent="1" vertex="1">
          <mxGeometry x="220" y="380" width="250" height="30" as="geometry" />
        </mxCell>
        <mxCell id="W75cND2qvZO_ZwM8Ezsm-10" value="Listen to call from the schedulers" style="rounded=0;whiteSpace=wrap;html=1;" parent="1" vertex="1">
          <mxGeometry x="220" y="500" width="250" height="30" as="geometry" />
        </mxCell>
        <mxCell id="DGsf9-MeSTJs5lk7nA3e-1" value="Generate job info based on class &amp;amp; method" style="rounded=0;whiteSpace=wrap;html=1;" parent="1" vertex="1">
          <mxGeometry x="220" y="430" width="250" height="30" as="geometry" />
        </mxCell>
        <mxCell id="4Q25WiTdi54f8AYO-q5Q-1" value="Scheduler start procedure" style="rounded=0;whiteSpace=wrap;html=1;" parent="1" vertex="1">
          <mxGeometry x="70" y="680" width="250" height="30" as="geometry" />
        </mxCell>
        <mxCell id="4Q25WiTdi54f8AYO-q5Q-2" value="" style="endArrow=none;html=1;rounded=0;" parent="1" edge="1">
          <mxGeometry width="50" height="50" relative="1" as="geometry">
            <mxPoint x="50" y="560" as="sourcePoint" />
            <mxPoint x="710" y="560" as="targetPoint" />
          </mxGeometry>
        </mxCell>
        <mxCell id="4Q25WiTdi54f8AYO-q5Q-3" value="Start ZK client" style="rounded=0;whiteSpace=wrap;html=1;" parent="1" vertex="1">
          <mxGeometry x="70" y="750" width="250" height="30" as="geometry" />
        </mxCell>
        <mxCell id="4Q25WiTdi54f8AYO-q5Q-4" value="Get current scheduler list" style="rounded=0;whiteSpace=wrap;html=1;" parent="1" vertex="1">
          <mxGeometry x="70" y="1030" width="250" height="30" as="geometry" />
        </mxCell>
        <mxCell id="4Q25WiTdi54f8AYO-q5Q-5" value="If the current scheduler is the scheduler with min registration time, run the job allocation algorithm" style="rounded=0;whiteSpace=wrap;html=1;" parent="1" vertex="1">
          <mxGeometry x="70" y="1100" width="250" height="50" as="geometry" />
        </mxCell>
        <mxCell id="4Q25WiTdi54f8AYO-q5Q-6" value="Register scheduler watcher" style="rounded=0;whiteSpace=wrap;html=1;" parent="1" vertex="1">
          <mxGeometry x="70" y="960" width="250" height="30" as="geometry" />
        </mxCell>
        <mxCell id="4Q25WiTdi54f8AYO-q5Q-7" value="Start scheduling cycles" style="rounded=0;whiteSpace=wrap;html=1;" parent="1" vertex="1">
          <mxGeometry x="70" y="1400" width="250" height="30" as="geometry" />
        </mxCell>
        <mxCell id="4Q25WiTdi54f8AYO-q5Q-8" value="Put allocation result to ZK" style="rounded=0;whiteSpace=wrap;html=1;" parent="1" vertex="1">
          <mxGeometry x="70" y="1190" width="250" height="30" as="geometry" />
        </mxCell>
        <mxCell id="4Q25WiTdi54f8AYO-q5Q-10" value="Register scheduling allocation watcher" style="rounded=0;whiteSpace=wrap;html=1;" parent="1" vertex="1">
          <mxGeometry x="70" y="890" width="250" height="30" as="geometry" />
        </mxCell>
        <mxCell id="4Q25WiTdi54f8AYO-q5Q-11" value="Get job info" style="rounded=0;whiteSpace=wrap;html=1;" parent="1" vertex="1">
          <mxGeometry x="70" y="1260" width="250" height="30" as="geometry" />
        </mxCell>
        <mxCell id="4Q25WiTdi54f8AYO-q5Q-12" value="Register job info watcher" style="rounded=0;whiteSpace=wrap;html=1;" parent="1" vertex="1">
          <mxGeometry x="70" y="1330" width="250" height="30" as="geometry" />
        </mxCell>
        <mxCell id="4Q25WiTdi54f8AYO-q5Q-13" value="Register to ZK" style="rounded=0;whiteSpace=wrap;html=1;" parent="1" vertex="1">
          <mxGeometry x="70" y="820" width="250" height="30" as="geometry" />
        </mxCell>
        <mxCell id="pBQQWS3VcoQOjUSulyyc-1" value="/cygnus/jobs/[applicationName]/[jobName, cron]" style="rounded=0;whiteSpace=wrap;html=1;" parent="1" vertex="1">
          <mxGeometry x="400" y="680" width="370" height="30" as="geometry" />
        </mxCell>
        <mxCell id="pBQQWS3VcoQOjUSulyyc-5" style="rounded=0;orthogonalLoop=1;jettySize=auto;html=1;exitX=0;exitY=1;exitDx=0;exitDy=0;entryX=1;entryY=0;entryDx=0;entryDy=0;" parent="1" source="pBQQWS3VcoQOjUSulyyc-2" target="pBQQWS3VcoQOjUSulyyc-4" edge="1">
          <mxGeometry relative="1" as="geometry" />
        </mxCell>
        <mxCell id="pBQQWS3VcoQOjUSulyyc-7" style="rounded=0;orthogonalLoop=1;jettySize=auto;html=1;exitX=1;exitY=1;exitDx=0;exitDy=0;entryX=0;entryY=0;entryDx=0;entryDy=0;" parent="1" source="pBQQWS3VcoQOjUSulyyc-2" target="pBQQWS3VcoQOjUSulyyc-6" edge="1">
          <mxGeometry relative="1" as="geometry" />
        </mxCell>
        <mxCell id="pBQQWS3VcoQOjUSulyyc-2" value="" style="ellipse;whiteSpace=wrap;html=1;aspect=fixed;" parent="1" vertex="1">
          <mxGeometry x="1130" y="584" width="30" height="30" as="geometry" />
        </mxCell>
        <mxCell id="pBQQWS3VcoQOjUSulyyc-3" value="/cygnus/applicationId" style="rounded=0;whiteSpace=wrap;html=1;" parent="1" vertex="1">
          <mxGeometry x="1180" y="584" width="140" height="30" as="geometry" />
        </mxCell>
        <mxCell id="pBQQWS3VcoQOjUSulyyc-12" style="edgeStyle=orthogonalEdgeStyle;rounded=0;orthogonalLoop=1;jettySize=auto;html=1;exitX=0.5;exitY=1;exitDx=0;exitDy=0;entryX=0.5;entryY=0;entryDx=0;entryDy=0;" parent="1" source="pBQQWS3VcoQOjUSulyyc-4" target="pBQQWS3VcoQOjUSulyyc-11" edge="1">
          <mxGeometry relative="1" as="geometry" />
        </mxCell>
        <mxCell id="pBQQWS3VcoQOjUSulyyc-4" value="" style="ellipse;whiteSpace=wrap;html=1;aspect=fixed;" parent="1" vertex="1">
          <mxGeometry x="1080" y="644" width="30" height="30" as="geometry" />
        </mxCell>
        <mxCell id="pBQQWS3VcoQOjUSulyyc-24" style="edgeStyle=orthogonalEdgeStyle;rounded=0;orthogonalLoop=1;jettySize=auto;html=1;exitX=0.5;exitY=1;exitDx=0;exitDy=0;entryX=0.5;entryY=0;entryDx=0;entryDy=0;" parent="1" source="pBQQWS3VcoQOjUSulyyc-6" target="pBQQWS3VcoQOjUSulyyc-23" edge="1">
          <mxGeometry relative="1" as="geometry" />
        </mxCell>
        <mxCell id="pBQQWS3VcoQOjUSulyyc-6" value="" style="ellipse;whiteSpace=wrap;html=1;aspect=fixed;" parent="1" vertex="1">
          <mxGeometry x="1180" y="644" width="30" height="30" as="geometry" />
        </mxCell>
        <mxCell id="pBQQWS3VcoQOjUSulyyc-8" value="/jobs" style="rounded=0;whiteSpace=wrap;html=1;" parent="1" vertex="1">
          <mxGeometry x="950" y="644" width="120" height="30" as="geometry" />
        </mxCell>
        <mxCell id="pBQQWS3VcoQOjUSulyyc-10" value="/schedulers" style="rounded=0;whiteSpace=wrap;html=1;" parent="1" vertex="1">
          <mxGeometry x="1217" y="644" width="113" height="30" as="geometry" />
        </mxCell>
        <mxCell id="pBQQWS3VcoQOjUSulyyc-15" style="edgeStyle=orthogonalEdgeStyle;rounded=0;orthogonalLoop=1;jettySize=auto;html=1;exitX=0.5;exitY=1;exitDx=0;exitDy=0;entryX=0.5;entryY=0;entryDx=0;entryDy=0;" parent="1" source="pBQQWS3VcoQOjUSulyyc-11" target="pBQQWS3VcoQOjUSulyyc-14" edge="1">
          <mxGeometry relative="1" as="geometry" />
        </mxCell>
        <mxCell id="pBQQWS3VcoQOjUSulyyc-11" value="" style="ellipse;whiteSpace=wrap;html=1;aspect=fixed;" parent="1" vertex="1">
          <mxGeometry x="1080" y="704" width="30" height="30" as="geometry" />
        </mxCell>
        <mxCell id="pBQQWS3VcoQOjUSulyyc-14" value="" style="ellipse;whiteSpace=wrap;html=1;aspect=fixed;" parent="1" vertex="1">
          <mxGeometry x="1080" y="764" width="30" height="30" as="geometry" />
        </mxCell>
        <mxCell id="pBQQWS3VcoQOjUSulyyc-16" value="/[jobName, cron]" style="rounded=0;whiteSpace=wrap;html=1;" parent="1" vertex="1">
          <mxGeometry x="950" y="704" width="120" height="30" as="geometry" />
        </mxCell>
        <mxCell id="pBQQWS3VcoQOjUSulyyc-19" value="We do not need a node to represent a group, we use different ZK clusters for different groups." style="rounded=0;whiteSpace=wrap;html=1;align=left;" parent="1" vertex="1">
          <mxGeometry x="1074" y="470" width="509" height="30" as="geometry" />
        </mxCell>
        <mxCell id="pBQQWS3VcoQOjUSulyyc-22" value="/[IP:port, refreshTime]" style="rounded=0;whiteSpace=wrap;html=1;" parent="1" vertex="1">
          <mxGeometry x="950" y="764" width="120" height="30" as="geometry" />
        </mxCell>
        <mxCell id="pBQQWS3VcoQOjUSulyyc-23" value="" style="ellipse;whiteSpace=wrap;html=1;aspect=fixed;" parent="1" vertex="1">
          <mxGeometry x="1180" y="704" width="30" height="30" as="geometry" />
        </mxCell>
        <mxCell id="pBQQWS3VcoQOjUSulyyc-33" value="A scheduler can register to multiple applications" style="rounded=0;whiteSpace=wrap;html=1;" parent="1" vertex="1">
          <mxGeometry x="70" y="610" width="250" height="30" as="geometry" />
        </mxCell>
        <mxCell id="QsFEnTBMGscoWcGjqfU7-1" value="/[IP:port, refreshTime + connected jobs]" style="rounded=0;whiteSpace=wrap;html=1;" vertex="1" parent="1">
          <mxGeometry x="1217" y="704" width="223" height="30" as="geometry" />
        </mxCell>
        <mxCell id="QsFEnTBMGscoWcGjqfU7-2" value="Application ID is generated by the admin console." style="rounded=0;whiteSpace=wrap;html=1;align=left;" vertex="1" parent="1">
          <mxGeometry x="1074" y="520" width="509" height="30" as="geometry" />
        </mxCell>
        <mxCell id="QsFEnTBMGscoWcGjqfU7-6" style="edgeStyle=orthogonalEdgeStyle;rounded=0;orthogonalLoop=1;jettySize=auto;html=1;exitX=1;exitY=0.5;exitDx=0;exitDy=0;entryX=1;entryY=0.5;entryDx=0;entryDy=0;fillColor=#dae8fc;strokeColor=#6c8ebf;" edge="1" parent="1" source="QsFEnTBMGscoWcGjqfU7-3" target="pBQQWS3VcoQOjUSulyyc-4">
          <mxGeometry relative="1" as="geometry" />
        </mxCell>
        <mxCell id="QsFEnTBMGscoWcGjqfU7-3" value="Watched by schedulers" style="rounded=0;whiteSpace=wrap;html=1;" vertex="1" parent="1">
          <mxGeometry x="970" y="880" width="130" height="30" as="geometry" />
        </mxCell>
        <mxCell id="QsFEnTBMGscoWcGjqfU7-8" style="edgeStyle=orthogonalEdgeStyle;rounded=0;orthogonalLoop=1;jettySize=auto;html=1;exitX=0;exitY=0.5;exitDx=0;exitDy=0;entryX=0.5;entryY=1;entryDx=0;entryDy=0;fillColor=#dae8fc;strokeColor=#6c8ebf;" edge="1" parent="1" source="QsFEnTBMGscoWcGjqfU7-7" target="pBQQWS3VcoQOjUSulyyc-2">
          <mxGeometry relative="1" as="geometry" />
        </mxCell>
        <mxCell id="QsFEnTBMGscoWcGjqfU7-7" value="Watched by admin" style="rounded=0;whiteSpace=wrap;html=1;" vertex="1" parent="1">
          <mxGeometry x="1170" y="880" width="130" height="30" as="geometry" />
        </mxCell>
      </root>
    </mxGraphModel>
  </diagram>
</mxfile>
